<?xml version="1.0" encoding="utf-8"?>
<!-- Generator: Adobe Illustrator 25.3.1, SVG Export Plug-In . SVG Version: 6.00 Build 0)  -->
<svg version="1.1" id="Layer_1" xmlns="http://www.w3.org/2000/svg" xmlns:xlink="http://www.w3.org/1999/xlink" x="0px" y="0px"
	 viewBox="0 0 437.19 71.79" style="enable-background:new 0 0 437.19 71.79;" xml:space="preserve">
<style type="text/css">
	.st0{fill:#FFFFFF;}
</style>
<g>
	<g>
		<path class="st0" d="M2.2,53.25c-0.24-0.05-0.48-0.12-0.72-0.17v0.05C1.73,53.17,1.97,53.21,2.2,53.25 M62.5,37.19l-20.28,4.24
			l9.85,0.41c-7.64,5.88-17.16,9.59-27.02,11.22c-7.47,1.24-15.32,1.39-22.85,0.19c0.21,0.04,0.42,0.1,0.64,0.14
			c17.89,3.86,37.07,0.93,53.32-6.55l0.58,7.17L62.5,37.19z"/>
		<path class="st0" d="M19.24,55.37c-5.59,0-11.1-0.57-16.45-1.72c-0.11-0.02-0.23-0.05-0.34-0.08c-0.09-0.02-0.19-0.04-0.29-0.06
			c-0.24-0.04-0.48-0.08-0.71-0.12l-0.21-0.04v-0.54l0.31,0.02c0.11,0.02,0.22,0.05,0.34,0.08c0.12,0.03,0.25,0.06,0.37,0.09
			c7.21,1.15,15.08,1.08,22.76-0.19c10.06-1.66,19.14-5.37,26.33-10.74l-11.2-0.46l22.75-4.76l-6.31,18.42l-0.65-8.04
			C44.13,52.61,31.53,55.37,19.24,55.37z M9.4,54.24c15.32,1.92,31.64-0.72,46.66-7.64l0.34-0.15l0.51,6.31l5.21-15.22l-17.8,3.72
			l8.48,0.35l-0.56,0.43c-7.34,5.65-16.72,9.55-27.13,11.27C19.86,54.18,14.54,54.49,9.4,54.24z"/>
	</g>
	<g>
		<path class="st0" d="M44.23,25.3c0.12,0,0.24,0,0.35,0c4.36-12.9,16.64-22.19,31.09-22.19c16.75,0,30.56,12.48,32.55,28.57
			c10.32,0.23,18.63,8.61,18.63,18.92c0,10.02-7.84,18.22-17.75,18.88v0.04h-2.72v-0.04c9.42-0.63,16.87-8.42,16.87-17.94
			c0-9.8-7.89-17.77-17.71-17.98c-1.89-15.3-15.02-27.16-30.94-27.16c-13.74,0-25.4,8.83-29.55,21.09c-0.11,0-0.22,0-0.33,0
			c-8.07,0-15.08,4.48-18.65,11.08c-1.81-0.7-3.78-1.09-5.84-1.09c-8.91,0-16.13,7.18-16.13,16.03c0,8.84,7.21,16.01,16.11,16.02
			h-1.74c-9.37,0-16.97-7.55-16.97-16.86c0-9.31,7.6-16.86,16.97-16.86c2.17,0,4.24,0.4,6.15,1.14
			C28.37,30.02,35.74,25.3,44.23,25.3"/>
		<path class="st0" d="M109.11,69.92H106v-0.75l0.36-0.07c9.26-0.62,16.5-8.34,16.5-17.56c0-9.49-7.77-17.39-17.33-17.6l-0.33-0.01
			l-0.04-0.33C103.28,18.32,90.14,6.79,74.61,6.79c-13.24,0-24.97,8.37-29.19,20.83l-0.09,0.27l-0.29-0.01c-0.11,0-0.21,0-0.32,0
			c-7.66,0-14.68,4.17-18.31,10.88l-0.16,0.3l-0.32-0.12c-1.82-0.7-3.74-1.06-5.7-1.06c-8.68,0-15.74,7.02-15.74,15.64
			c0,8.61,7.05,15.62,15.72,15.63l0,0.77h-1.74c-9.57,0-17.36-7.74-17.36-17.24c0-9.51,7.79-17.25,17.36-17.25
			c2.06,0,4.07,0.35,5.97,1.05c4-7.14,11.56-11.57,19.8-11.57c0.03,0,0.05,0,0.08,0C48.93,11.63,61.5,2.73,75.68,2.73
			c16.63,0,30.71,12.26,32.89,28.58c10.33,0.4,18.67,8.99,18.67,19.3c0,10-7.77,18.38-17.75,19.24v0.03L109.11,69.92z M105.89,33.19
			c9.82,0.39,17.75,8.56,17.75,18.36c0,7.82-4.99,14.59-12.03,17.21c8.51-1.76,14.86-9.29,14.86-18.15c0-10-8.19-18.31-18.25-18.53
			l-0.33-0.01l-0.04-0.33C105.86,15.64,92.03,3.5,75.68,3.5c-13.94,0-26.29,8.81-30.72,21.93l-0.09,0.27l-0.29-0.01
			c-0.11,0-0.23,0-0.34,0c-8.07,0-15.46,4.39-19.28,11.46l-0.16,0.3l-0.32-0.12c-1.91-0.74-3.94-1.12-6.01-1.12
			c-9.15,0-16.59,7.39-16.59,16.47c0,7.08,4.53,13.14,10.86,15.46c-5.35-2.72-9.03-8.25-9.03-14.62c0-9.05,7.41-16.41,16.52-16.41
			c1.94,0,3.85,0.34,5.67,1c3.81-6.79,11-10.99,18.83-10.99c0.02,0,0.04,0,0.06,0c4.4-12.62,16.35-21.09,29.83-21.09
			C90.42,6.02,103.81,17.68,105.89,33.19z"/>
	</g>
</g>
<g>
	<path class="st0" d="M179.53,59.51c-2.81,3.02-5.81,4.48-9.16,4.48c-6.15,0-10.96-5.13-10.96-11.68c0-6.52,4.68-11.62,10.66-11.62
		c4.19,0,6.85,2.18,9.1,4.55l0.34,0.36l3.71-3.92l-0.3-0.32c-2.49-2.64-6.19-5.68-12.79-5.68c-9.2,0-16.4,7.36-16.4,16.76
		c0,9.33,7.2,16.64,16.4,16.64c6.65,0,10.46-3.3,13.04-6.17l0.3-0.34l-3.62-3.4L179.53,59.51z"/>
	<rect x="190.4" y="23.52" class="st0" width="5.56" height="44.83"/>
	<path class="st0" d="M220.57,35.67c-9.37,0-16.7,7.36-16.7,16.76c0,9.33,7.28,16.64,16.58,16.64c9.4,0,16.76-7.36,16.76-16.76
		C237.22,42.98,229.91,35.67,220.57,35.67z M231.53,52.43c0,6.59-4.71,11.56-10.96,11.56c-6.18,0-11.02-5.13-11.02-11.68
		c0-6.73,4.58-11.62,10.9-11.62C226.67,40.69,231.53,45.85,231.53,52.43z"/>
	<path class="st0" d="M266.71,54.6c0,5.46-3.64,9.27-8.85,9.27c-5.09,0-8.13-3.33-8.13-8.91V36.33h-5.56V56.1
		c0,7.84,4.86,12.91,12.37,12.91c4.28,0,7.62-1.65,10.18-5.03v4.37h5.5V36.33h-5.5V54.6z"/>
	<path class="st0" d="M306.63,41.34c-3.01-3.76-6.85-5.67-11.44-5.67c-7.43,0-15.32,5.85-15.32,16.7c0,10.81,7.89,16.64,15.32,16.64
		c4.59,0,8.35-1.95,11.44-5.94v5.28h5.56V23.52h-5.56V41.34z M306.81,52.31c0,7.27-5.48,11.62-10.78,11.62
		c-6.07,0-10.48-4.89-10.48-11.62c0-6.81,4.31-11.56,10.48-11.56C301.33,40.75,306.81,45.08,306.81,52.31z"/>
	<path class="st0" d="M328.79,26.95h-5.56v9.38h-4.33v5.02h4.33v18.29c0,5.96,3.28,9.25,9.25,9.25c2.15,0,4-0.44,5.81-1.38
		l0.25-0.13v-4.99l-0.67,0.32c-1.53,0.74-2.78,1.04-4.31,1.04c-3.25,0-4.76-1.49-4.76-4.7V41.35h9.86v-5.02h-9.86V26.95z"/>
	<path class="st0" d="M361.64,35.67c-4.27,0-7.69,1.68-10.18,5.01V23.52h-5.56v44.83h5.56V50.09c0-5.46,3.64-9.27,8.85-9.27
		c5.09,0,8.13,3.33,8.13,8.91v18.63h5.56V48.58C374.01,40.74,369.15,35.67,361.64,35.67z"/>
	<path class="st0" d="M395.13,35.91c-5.06,0-8.65,1.33-11.5,2.63l-0.39,0.18l1.7,4.67l0.46-0.21c2.54-1.16,5.42-2.24,9.25-2.24
		c5.75,0,8.79,2.77,8.79,8.01v0.47c-2.34-0.63-5.09-1.18-9.09-1.18c-8.61,0-13.76,3.95-13.76,10.57c0,6.7,6.07,10.21,12.07,10.21
		c5.31,0,8.71-2.28,10.78-4.54v3.87h5.38V48.89C408.82,40.52,403.96,35.91,395.13,35.91z M403.5,53.81v2.65
		c0,4.53-4.27,7.95-9.94,7.95c-3.54,0-7.35-1.81-7.35-5.79c0-3.77,3.22-6.03,8.61-6.03C397.74,52.6,400.59,52.99,403.5,53.81z"/>
	<path class="st0" d="M434.49,41.35v-5.02h-9.86v-9.38h-5.56v9.38h-4.33v5.02h4.33v18.29c0,5.96,3.28,9.25,9.25,9.25
		c2.15,0,4-0.44,5.81-1.38l0.25-0.13v-4.99l-0.67,0.32c-1.53,0.74-2.78,1.04-4.31,1.04c-3.25,0-4.76-1.49-4.76-4.7V41.35H434.49z"/>
</g>
</svg>
