<?xml version="1.0" encoding="utf-8"?>
<!-- Generator: Adobe Illustrator 25.3.1, SVG Export Plug-In . SVG Version: 6.00 Build 0)  -->
<svg version="1.1" id="Layer_1" xmlns="http://www.w3.org/2000/svg" xmlns:xlink="http://www.w3.org/1999/xlink" x="0px" y="0px"
	 viewBox="0 0 348.38 233.18" style="enable-background:new 0 0 348.38 233.18;" xml:space="preserve">
<style type="text/css">
	.st0{fill:#FFFFFF;}
</style>
<g>
	<path class="st0" d="M34.57,216.1c-3.4,3.65-7.04,5.43-11.1,5.43c-7.45,0-13.28-6.22-13.28-14.15c0-7.9,5.67-14.08,12.92-14.08
		c5.08,0,8.3,2.65,11.03,5.51l0.41,0.43l4.49-4.76l-0.37-0.39c-3.02-3.2-7.5-6.88-15.5-6.88c-11.14,0-19.87,8.92-19.87,20.31
		c0,11.31,8.73,20.17,19.87,20.17c8.06,0,12.68-3.99,15.8-7.48l0.37-0.41l-4.39-4.12L34.57,216.1z"/>
	<rect x="47.75" y="172.49" class="st0" width="6.74" height="54.32"/>
	<path class="st0" d="M84.31,187.21c-11.35,0-20.24,8.92-20.24,20.31c0,11.31,8.83,20.17,20.09,20.17
		c11.39,0,20.31-8.92,20.31-20.31C104.48,196.07,95.62,187.21,84.31,187.21z M97.59,207.52c0,7.99-5.71,14.01-13.28,14.01
		c-7.49,0-13.35-6.22-13.35-14.15c0-8.16,5.55-14.08,13.21-14.08C91.7,193.29,97.59,199.54,97.59,207.52z"/>
	<path class="st0" d="M140.22,210.14c0,6.62-4.41,11.24-10.73,11.24c-6.17,0-9.85-4.04-9.85-10.8v-22.57h-6.74v23.96
		c0,9.51,5.89,15.65,14.99,15.65c5.19,0,9.24-2,12.33-6.1v5.3h6.67v-38.8h-6.67V210.14z"/>
	<path class="st0" d="M188.6,194.08c-3.64-4.56-8.3-6.87-13.86-6.87c-9,0-18.56,7.09-18.56,20.24c0,13.1,9.56,20.17,18.56,20.17
		c5.57,0,10.12-2.36,13.86-7.2v6.4h6.74v-54.32h-6.74V194.08z M188.82,207.37c0,8.81-6.64,14.08-13.06,14.08
		c-7.36,0-12.7-5.92-12.7-14.08c0-8.25,5.22-14.01,12.7-14.01C182.18,193.37,188.82,198.61,188.82,207.37z"/>
	<path class="st0" d="M215.45,176.64h-6.74v11.37h-5.25v6.09h5.25v22.17c0,7.23,3.98,11.2,11.2,11.2c2.61,0,4.84-0.53,7.04-1.67
		l0.31-0.16v-6.05l-0.81,0.39c-1.85,0.89-3.36,1.26-5.22,1.26c-3.94,0-5.77-1.81-5.77-5.7v-21.44h11.95v-6.09h-11.95V176.64z"/>
	<path class="st0" d="M255.25,187.21c-5.18,0-9.32,2.04-12.33,6.07v-20.79h-6.74v54.32h6.74v-22.13c0-6.62,4.41-11.24,10.73-11.24
		c6.17,0,9.85,4.04,9.85,10.8v22.57h6.74v-23.96C270.24,193.35,264.36,187.21,255.25,187.21z"/>
	<path class="st0" d="M295.83,187.5c-6.13,0-10.48,1.61-13.93,3.18l-0.48,0.22l2.07,5.66l0.56-0.26c3.08-1.41,6.57-2.72,11.2-2.72
		c6.97,0,10.66,3.36,10.66,9.71v0.57c-2.83-0.76-6.17-1.43-11.02-1.43c-10.44,0-16.67,4.79-16.67,12.81
		c0,8.12,7.36,12.37,14.63,12.37c6.43,0,10.55-2.76,13.06-5.5v4.69h6.52v-23.59C312.43,193.08,306.53,187.5,295.83,187.5z
		 M305.98,209.18v3.22c0,5.49-5.18,9.64-12.04,9.64c-4.29,0-8.91-2.19-8.91-7.01c0-4.57,3.9-7.3,10.44-7.3
		C299,207.72,302.45,208.2,305.98,209.18z"/>
	<path class="st0" d="M343.53,194.09v-6.09h-11.95v-11.37h-6.74v11.37h-5.25v6.09h5.25v22.17c0,7.23,3.98,11.2,11.2,11.2
		c2.61,0,4.84-0.53,7.04-1.67l0.31-0.16v-6.05l-0.81,0.39c-1.85,0.89-3.36,1.26-5.22,1.26c-3.94,0-5.77-1.81-5.77-5.7v-21.44H343.53
		z"/>
</g>
<g>
	<g>
		<path class="st0" d="M24.01,126.05c-0.57-0.12-1.14-0.27-1.71-0.4v0.11C22.87,125.86,23.44,125.96,24.01,126.05 M167.85,87.74
			l-48.37,10.12l23.49,0.97c-18.22,14.03-40.94,22.88-64.45,26.77c-17.81,2.95-36.53,3.32-54.51,0.45c0.51,0.11,1.01,0.24,1.52,0.34
			c42.68,9.2,88.43,2.22,127.18-15.63l1.39,17.11L167.85,87.74z"/>
		<path class="st0" d="M64.65,131.1c-13.32,0-26.49-1.36-39.25-4.11c-0.27-0.05-0.54-0.12-0.82-0.18c-0.23-0.05-0.45-0.11-0.68-0.16
			c-0.57-0.09-1.14-0.19-1.7-0.28l-0.51-0.09V125l0.75,0.05c0.27,0.06,0.53,0.12,0.8,0.19c0.3,0.07,0.59,0.14,0.89,0.21
			c17.2,2.74,35.97,2.58,54.3-0.46c23.99-3.97,45.67-12.82,62.81-25.62l-26.72-1.1l54.27-11.35l-15.04,43.94l-1.56-19.17
			C124.02,124.52,93.96,131.1,64.65,131.1z M41.17,128.42c36.54,4.58,75.48-1.72,111.29-18.22l0.8-0.37l1.22,15.04l12.43-36.31
			l-42.46,8.88l20.23,0.83l-1.34,1.03c-17.51,13.48-39.89,22.78-64.72,26.89C66.14,128.27,53.43,129.01,41.17,128.42z"/>
	</g>
	<g>
		<path class="st0" d="M124.27,59.38c0.28,0,0.56,0,0.84,0.01c10.41-30.77,39.69-52.93,74.17-52.93c39.94,0,72.9,29.76,77.65,68.16
			c24.63,0.54,44.44,20.54,44.44,45.13c0,23.89-18.69,43.45-42.33,45.04v0.1h-6.5v-0.1c22.47-1.51,40.23-20.1,40.23-42.81
			c0-23.37-18.83-42.39-42.24-42.9c-4.51-36.51-35.84-64.79-73.8-64.79c-32.77,0-60.6,21.06-70.5,50.31
			c-0.26-0.01-0.52-0.01-0.79-0.01c-19.24,0-35.97,10.7-44.5,26.44c-4.32-1.67-9.02-2.6-13.94-2.6c-21.25,0-38.48,17.12-38.48,38.23
			c0,21.09,17.2,38.19,38.42,38.22h-4.15c-22.35,0-40.49-18-40.49-40.21c0-22.21,18.13-40.22,40.49-40.22
			c5.18,0,10.12,0.97,14.67,2.73C86.42,70.64,104.02,59.38,124.27,59.38"/>
		<path class="st0" d="M279.04,165.82h-7.42v-1.79l0.86-0.16c22.08-1.49,39.37-19.88,39.37-41.89c0-22.65-18.54-41.48-41.34-41.98
			l-0.8-0.02l-0.1-0.79c-4.5-36.47-35.84-63.98-72.89-63.98c-31.58,0-59.56,19.97-69.63,49.68l-0.22,0.65l-0.68-0.02
			c-0.25-0.01-0.5,0.01-0.76-0.01c-18.28,0-35.02,9.95-43.68,25.96l-0.39,0.71l-0.76-0.29c-4.35-1.68-8.93-2.53-13.61-2.53
			c-20.71,0-37.56,16.74-37.56,37.31c0,20.54,16.82,37.27,37.5,37.3l0,1.85h-4.15c-22.83,0-41.41-18.45-41.41-41.13
			c0-22.69,18.58-41.14,41.41-41.14c4.91,0,9.7,0.84,14.25,2.51c9.55-17.04,27.57-27.59,47.23-27.59c0.06,0,0.12,0,0.19,0
			c11.02-31.68,41.01-52.92,74.82-52.92c39.67,0,73.26,29.26,78.46,68.19c24.64,0.96,44.55,21.45,44.55,46.03
			c0,23.86-18.52,43.85-42.33,45.9v0.07L279.04,165.82z M271.35,78.2c23.42,0.94,42.35,20.42,42.35,43.8
			c0,18.64-11.89,34.81-28.69,41.07c20.3-4.19,35.44-22.17,35.44-43.3c0-23.85-19.53-43.69-43.54-44.21l-0.8-0.02l-0.1-0.79
			c-4.74-38.4-37.73-67.35-76.73-67.35c-33.25,0-62.7,21.02-73.29,52.3l-0.22,0.65l-0.68-0.02c-0.27-0.01-0.55,0-0.82-0.01
			c-19.25,0-36.87,10.47-45.99,27.33l-0.39,0.72l-0.76-0.29c-4.56-1.77-9.39-2.67-14.34-2.67c-21.82,0-39.56,17.63-39.56,39.3
			c0,16.9,10.8,31.34,25.91,36.87c-12.77-6.48-21.54-19.69-21.54-34.88c0-21.59,17.68-39.15,39.4-39.15c4.64,0,9.18,0.8,13.52,2.38
			c9.1-16.2,26.23-26.22,44.92-26.22c0.05,0,0.09,0,0.14,0c10.5-30.12,39.01-50.3,71.16-50.3C234.45,13.38,266.38,41.19,271.35,78.2
			z"/>
	</g>
</g>
</svg>
